0
SECTION
2
HEADER
9
$ACADVER
1
AC1021
9
$DWGCODEPAGE
3
ANSI_936
9
$LASTSAVEDBY
1
hp
9
$HANDSEED
5
77
9
$ANGBASE
50
0.0
9
$ANGDIR
70
0
9
$ATTMODE
70
1
9
$AUNITS
70
0
9
$AUPREC
70
0
9
$CECOLOR
62
256
9
$CELTSCALE
40
1.0
9
$CELTYPE
6
ByLayer
9
$CELWEIGHT
370
-1
9
$CLAYER
8
0
9
$CMLJUST
70
0
9
$CMLSCALE
40
20.0
9
$CMLSTYLE
2
Standard
9
$DIMSTYLE
2
ISO-25
9
$TEXTSIZE
40
2.5
9
$TEXTSTYLE
7
Standard
9
$LUNITS
70
2
9
$LUPREC
70
4
9
$EXTNAMES
290
1
9
$INSUNITS
70
4
9
$LTSCALE
40
1.0
9
$LWDISPLAY
290
0
9
$PDMODE
70
0
9
$PDSIZE
40
0.0
9
$PLINEGEN
70
0
9
$TDCREATE
40
2453854.71395397
9
$TDUCREATE
40
2453854.38062064
9
$TDUPDATE
40
2453854.71395398
9
$TDUUPDATE
40
2453854.38062065
9
$TDINDWG
40
0.00000001157407407
0
ENDSEC
0
SECTION
2
CLASSES
0
CLASS
1
RASTERVARIABLES
2
AcDbRasterVariables
3
ISM
90
0
91
1
280
0
281
0
0
ENDSEC
0
SECTION
2
TABLES
0
TABLE
2
APPID
5
9
330
0
100
AcDbSymbolTable
70
2
0
APPID
5
12
330
9
100
AcDbSymbolTableRecord
100
AcDbRegAppTableRecord
2
ACAD
70
0
0
APPID
5
67
330
9
100
AcDbSymbolTableRecord
100
AcDbRegAppTableRecord
2
AcCmTransparency
70
0
0
ENDTAB
0
TABLE
2
VPORT
5
8
330
0
100
AcDbSymbolTable
70
0
0
ENDTAB
0
TABLE
2
LTYPE
5
5
330
0
100
AcDbSymbolTable
70
6
0
LTYPE
5
14
330
5
100
AcDbSymbolTableRecord
100
AcDbLinetypeTableRecord
70
0
2
ByBlock
3

72
65
73
0
40
0.0
0
LTYPE
5
15
330
5
100
AcDbSymbolTableRecord
100
AcDbLinetypeTableRecord
70
0
2
ByLayer
3

72
65
73
0
40
0.0
0
LTYPE
5
16
330
5
100
AcDbSymbolTableRecord
100
AcDbLinetypeTableRecord
70
0
2
Continuous
3
Solid line
72
65
73
0
40
0.0
0
LTYPE
5
2E
330
5
100
AcDbSymbolTableRecord
100
AcDbLinetypeTableRecord
70
0
2
EB_DASH
3
__ __ __ __ __ __ __ __ __ __ __ __ __ __ __ __
72
65
73
2
40
6.0
49
3.0
74
0
49
-3.0
74
0
0
LTYPE
5
2F
330
5
100
AcDbSymbolTableRecord
100
AcDbLinetypeTableRecord
70
0
2
EB_DASHDOT
3
______ _ ______ _ ______ _ ______ _ ______ _ ______ _ ______
72
65
73
4
40
39.0
49
30.0
74
0
49
-3.0
74
0
49
3.0
74
0
49
-3.0
74
0
0
LTYPE
5
30
330
5
100
AcDbSymbolTableRecord
100
AcDbLinetypeTableRecord
70
0
2
EB_DASHDOTDOT
3
______ _ _ ____________ _ _ ____________ _ _ ____________ _ _ ______
72
65
73
6
40
45.0
49
30.0
74
0
49
-3.0
74
0
49
3.0
74
0
49
-3.0
74
0
49
3.0
74
0
49
-3.0
74
0
0
ENDTAB
0
TABLE
2
LAYER
5
2
330
0
100
AcDbSymbolTable
70
8
0
LAYER
5
10
330
2
100
AcDbSymbolTableRecord
100
AcDbLayerTableRecord
2
0
70
0
62
7
6
Continuous
290
1
370
-3
390
0
0
LAYER
5
31
330
2
100
AcDbSymbolTableRecord
100
AcDbLayerTableRecord
2
CAXA0
70
0
62
7
6
Continuous
290
1
370
70
390
0
0
LAYER
5
32
330
2
100
AcDbSymbolTableRecord
100
AcDbLayerTableRecord
2
CAXA1
70
0
62
1
6
EB_DASHDOT
290
1
370
25
390
0
0
LAYER
5
33
330
2
100
AcDbSymbolTableRecord
100
AcDbLayerTableRecord
2
CAXA2
70
0
62
6
6
EB_DASH
290
1
370
25
390
0
0
LAYER
5
34
330
2
100
AcDbSymbolTableRecord
100
AcDbLayerTableRecord
2
CAXA3
70
0
62
7
6
Continuous
290
1
370
25
390
0
0
LAYER
5
35
330
2
100
AcDbSymbolTableRecord
100
AcDbLayerTableRecord
2
CAXA4
70
0
62
3
6
Continuous
290
1
370
25
390
0
0
LAYER
5
36
330
2
100
AcDbSymbolTableRecord
100
AcDbLayerTableRecord
2
CAXA5
70
0
62
4
6
Continuous
290
1
370
25
390
0
0
LAYER
5
37
330
2
100
AcDbSymbolTableRecord
100
AcDbLayerTableRecord
2
CAXA6
70
0
62
-7
6
Continuous
290
1
370
25
390
0
0
ENDTAB
0
TABLE
2
STYLE
5
3
330
0
100
AcDbSymbolTable
70
3
0
STYLE
5
11
330
3
100
AcDbSymbolTableRecord
100
AcDbTextStyleTableRecord
2
Standard
3
txt
70
0
71
0
40
0.0
41
1.0
42
0.0
50
0.0
0
STYLE
5
3C
330
3
100
AcDbSymbolTableRecord
100
AcDbTextStyleTableRecord
2
标准
3
simplex.shx
70
0
71
0
40
0.0
41
0.667
42
0.0
50
0.0
0
STYLE
5
3F
330
3
100
AcDbSymbolTableRecord
100
AcDbTextStyleTableRecord
2
DIM
3
simplex.shx
70
0
71
0
40
0.0
41
0.67
42
0.0
50
0.0
0
ENDTAB
0
TABLE
2
DIMSTYLE
5
A
330
0
100
AcDbSymbolTable
70
8
100
AcDbDimStyleTable
0
DIMSTYLE
105
27
330
A
100
AcDbSymbolTableRecord
100
AcDbDimStyleTableRecord
2
ISO-25
70
0
3
<>
41
2.5
42
0.625
44
1.25
73
0
74
0
77
1
140
2.5
141
0.0
147
0.625
179
0
271
2
275
0
278
44
280
0
340
11
0
DIMSTYLE
105
38
330
A
100
AcDbSymbolTableRecord
100
AcDbDimStyleTableRecord
2
标准
70
0
3
<>
41
4.0
42
0.0
44
2.0
73
0
74
0
77
1
140
3.5
141
0.0
147
0.625
179
2
271
1
275
0
278
46
280
0
340
3C
0
DIMSTYLE
105
3D
330
A
100
AcDbSymbolTableRecord
100
AcDbDimStyleTableRecord
2
机械
70
0
3
<>
41
4.0
42
0.0
44
2.0
73
0
74
0
77
1
140
3.5
141
0.0
147
0.625
179
2
271
1
275
0
278
46
280
0
340
3C
0
DIMSTYLE
105
3E
330
A
100
AcDbSymbolTableRecord
100
AcDbDimStyleTableRecord
2
STANDARD
70
0
3
<>
41
2.8
42
0.0
44
1.5
73
0
74
0
77
1
140
3.5
141
0.0
147
0.5
179
0
271
2
275
0
278
46
280
0
340
3F
0
DIMSTYLE
105
40
330
A
100
AcDbSymbolTableRecord
100
AcDbDimStyleTableRecord
2
DIM
70
0
3
<>
41
2.5
42
0.625
44
1.25
73
0
74
0
77
1
140
2.5
141
0.0
147
0.625
179
0
271
2
275
0
278
46
280
0
340
11
0
DIMSTYLE
105
41
330
A
100
AcDbSymbolTableRecord
100
AcDbDimStyleTableRecord
2
DIM$0
70
0
3
<>
41
2.8
42
0.0
44
1.5
73
0
74
0
77
1
140
3.5
141
0.0
147
0.5
179
0
271
2
275
0
278
46
280
0
340
3F
0
DIMSTYLE
105
42
330
A
100
AcDbSymbolTableRecord
100
AcDbDimStyleTableRecord
2
DIM$3
70
0
3
<>
41
2.8
42
0.0
44
1.5
73
0
74
0
77
1
140
3.5
141
0.0
147
0.5
179
0
271
2
275
0
278
46
280
0
340
3F
0
DIMSTYLE
105
43
330
A
100
AcDbSymbolTableRecord
100
AcDbDimStyleTableRecord
2
DIM$7
70
0
3
<>
41
4.0
42
0.0
44
1.5
73
0
74
0
77
1
140
3.5
141
0.0
147
0.5
179
0
271
2
275
0
278
46
280
0
340
3F
0
ENDTAB
0
TABLE
2
VIEW
5
6
330
0
100
AcDbSymbolTable
70
0
0
ENDTAB
0
TABLE
2
UCS
5
7
330
0
100
AcDbSymbolTable
70
0
0
ENDTAB
0
TABLE
2
BLOCK_RECORD
5
1
330
0
100
AcDbSymbolTable
70
5
0
BLOCK_RECORD
5
1F
330
1
100
AcDbSymbolTableRecord
100
AcDbBlockTableRecord
2
*Model_Space
340
22
0
BLOCK_RECORD
5
1B
330
1
100
AcDbSymbolTableRecord
100
AcDbBlockTableRecord
2
*Paper_Space
340
1E
0
BLOCK_RECORD
5
23
330
1
100
AcDbSymbolTableRecord
100
AcDbBlockTableRecord
2
*Paper_Space0
340
26
0
BLOCK_RECORD
5
39
330
1
100
AcDbSymbolTableRecord
100
AcDbBlockTableRecord
2
_None
340
0
70
0
280
1
281
0
1001
ACAD
1000
DesignCenter Data
1002
{
1070
1
1070
0
1002
}
0
BLOCK_RECORD
5
44
330
1
100
AcDbSymbolTableRecord
100
AcDbBlockTableRecord
2
CAXBLOCK0
340
0
70
0
280
1
281
0
1001
ACAD
1000
DesignCenter Data
1002
{
1070
1
1070
0
1002
}
0
ENDTAB
0
ENDSEC
0
SECTION
2
BLOCKS
0
BLOCK
5
20
330
1F
100
AcDbEntity
8
0
100
AcDbBlockBegin
2
*Model_Space
70
0
10
0.0
20
0.0
30
0.0
3
*Model_Space
0
ENDBLK
5
21
330
1F
100
AcDbEntity
8
0
100
AcDbBlockEnd
0
BLOCK
5
1C
330
1B
100
AcDbEntity
8
0
100
AcDbBlockBegin
2
*Paper_Space
70
0
10
0.0
20
0.0
30
0.0
3
*Paper_Space
0
ENDBLK
5
1D
330
1B
100
AcDbEntity
8
0
100
AcDbBlockEnd
0
BLOCK
5
24
330
23
100
AcDbEntity
67
1
8
0
100
AcDbBlockBegin
2
*Paper_Space0
70
0
10
0.0
20
0.0
30
0.0
3
*Paper_Space0
0
VIEWPORT
5
66
330
23
100
AcDbEntity
67
1
8
0
62
256
6
ByLayer
370
-1
48
1.0
60
0
100
AcDbViewport
10
0.0
20
0.0
30
0.0
40
297.0
41
210.0
68
1
69
1
12
50.0
22
100.0
13
0.0
23
0.0
14
10.0
24
10.0
15
10.0
25
10.0
16
0.0
26
0.0
36
1.0
17
0.0
27
0.0
37
0.0
42
50.0
43
0.0
44
0.0
45
250.0
50
0.0
51
0.0
72
1000
90
819232
110
0.0
120
0.0
130
0.0
111
1.0
121
0.0
131
0.0
112
0.0
122
1.0
132
0.0
0
ENDBLK
5
25
330
23
100
AcDbEntity
8
0
100
AcDbBlockEnd
0
BLOCK
5
3A
330
39
100
AcDbEntity
8
0
100
AcDbBlockBegin
2
_None
70
0
10
0.0
20
0.0
30
0.0
3
_None
0
ENDBLK
5
3B
330
39
100
AcDbEntity
8
0
100
AcDbBlockEnd
0
BLOCK
5
60
330
44
100
AcDbEntity
8
0
100
AcDbBlockBegin
2
CAXBLOCK0
70
0
10
-626.543564199709
20
506.572813960623
30
0.0
3
CAXBLOCK0
0
LINE
5
45
330
44
100
AcDbEntity
8
CAXA0
62
256
6
ByLayer
370
-1
48
1.0
60
0
100
AcDbLine
10
-626.543564199709
20
780.171499351294
30
0.0
11
-626.543564199709
21
232.974128569953
31
0.0
39
0.0
210
0.0
220
0.0
230
1.0
0
LINE
5
46
330
44
100
AcDbEntity
8
CAXA0
62
256
6
ByLayer
370
-1
48
1.0
60
0
100
AcDbLine
10
-797.80259000941
20
643.372156655958
30
0.0
11
-626.543564199709
21
643.372156655958
31
0.0
39
0.0
210
0.0
220
0.0
230
1.0
0
LINE
5
47
330
44
100
AcDbEntity
8
CAXA0
62
256
6
ByLayer
370
-1
48
1.0
60
0
100
AcDbLine
10
-797.80259000941
20
369.773471265288
30
0.0
11
-626.543564199709
21
369.773471265288
31
0.0
39
0.0
210
0.0
220
0.0
230
1.0
0
ARC
5
48
330
44
100
AcDbEntity
8
CAXA0
62
256
6
ByLayer
370
-1
48
1.0
60
0
100
AcDbCircle
39
0.0
10
-702.157209070191
20
711.771828003626
30
0.0
40
117.586367983186
210
0.0
220
0.0
230
1.0
100
AcDbArc
50
144.429990415736
51
215.570009584257
0
ARC
5
49
330
44
100
AcDbEntity
8
CAXA0
62
256
6
ByLayer
370
-1
48
1.0
60
0
100
AcDbCircle
39
0.0
10
-702.157209070191
20
301.37379991762
30
0.0
40
117.586367983186
210
0.0
220
0.0
230
1.0
100
AcDbArc
50
144.429990415738
51
215.57000958426
0
LINE
5
4A
330
44
100
AcDbEntity
8
CAXA0
62
256
6
ByLayer
370
-1
48
1.0
60
0
100
AcDbLine
10
-797.80259000941
20
780.171499351294
30
0.0
11
-626.543564199709
21
780.171499351294
31
0.0
39
0.0
210
0.0
220
0.0
230
1.0
0
LINE
5
4B
330
44
100
AcDbEntity
8
CAXA0
62
256
6
ByLayer
370
-1
48
1.0
60
0
100
AcDbLine
10
-797.80259000941
20
232.974128569953
30
0.0
11
-626.543564199709
21
232.974128569953
31
0.0
39
0.0
210
0.0
220
0.0
230
1.0
0
LINE
5
4C
330
44
100
AcDbEntity
8
CAXA0
62
256
6
ByLayer
370
-1
48
1.0
60
0
100
AcDbLine
10
-626.543564199709
20
652.384144416221
30
0.0
11
-626.543564199709
21
360.761483505025
31
0.0
39
0.0
210
0.0
220
0.0
230
1.0
0
LINE
5
4D
330
44
100
AcDbEntity
8
CAXA1
62
256
6
EB_DASHDOT
370
25
48
1.0
60
0
100
AcDbLine
10
-929.102074895075
20
506.572813960623
30
0.0
11
394.135748989478
21
506.572813960623
31
0.0
39
0.0
210
0.0
220
0.0
230
1.0
0
LINE
5
4E
330
44
100
AcDbEntity
8
CAXA0
62
256
6
ByLayer
370
-1
48
1.0
60
0
100
AcDbLine
10
-489.845441897586
20
652.384144416221
30
0.0
11
-489.845441897586
21
360.761483505025
31
0.0
39
0.0
210
0.0
220
0.0
230
1.0
0
LINE
5
4F
330
44
100
AcDbEntity
8
CAXA3
62
256
6
ByLayer
370
-1
48
1.0
60
0
100
AcDbLine
10
-489.845441897586
20
630.512444847881
30
0.0
11
284.77725114778
21
630.512444847881
31
0.0
39
0.0
210
0.0
220
0.0
230
1.0
0
LINE
5
50
330
44
100
AcDbEntity
8
CAXA3
62
256
6
ByLayer
370
-1
48
1.0
60
0
100
AcDbLine
10
-489.845441897586
20
382.633183073365
30
0.0
11
284.77725114778
21
382.633183073365
31
0.0
39
0.0
210
0.0
220
0.0
230
1.0
0
LINE
5
51
330
44
100
AcDbEntity
8
CAXA3
62
256
6
ByLayer
370
-1
48
1.0
60
0
100
AcDbLine
10
-626.543564199709
20
360.761483505025
30
0.0
11
-489.845441897586
21
382.633183073365
31
0.0
39
0.0
210
0.0
220
0.0
230
1.0
0
LINE
5
52
330
44
100
AcDbEntity
8
CAXA3
62
256
6
ByLayer
370
-1
48
1.0
60
0
100
AcDbLine
10
-626.543564199709
20
652.384144416221
30
0.0
11
-489.845441897586
21
630.512444847881
31
0.0
39
0.0
210
0.0
220
0.0
230
1.0
0
LINE
5
53
330
44
100
AcDbEntity
8
CAXA0
62
256
6
ByLayer
370
-1
48
1.0
60
0
100
AcDbLine
10
284.77725114778
20
630.512444847881
30
0.0
11
262.90555157944
21
652.384144416221
31
0.0
39
0.0
210
0.0
220
0.0
230
1.0
0
LINE
5
54
330
44
100
AcDbEntity
8
CAXA0
62
256
6
ByLayer
370
-1
48
1.0
60
0
100
AcDbLine
10
-626.543564199709
20
652.384144416221
30
0.0
11
262.90555157944
21
652.384144416221
31
0.0
39
0.0
210
0.0
220
0.0
230
1.0
0
LINE
5
55
330
44
100
AcDbEntity
8
CAXA0
62
256
6
ByLayer
370
-1
48
1.0
60
0
100
AcDbLine
10
-626.543564199709
20
360.761483505025
30
0.0
11
262.90555157944
21
360.761483505025
31
0.0
39
0.0
210
0.0
220
0.0
230
1.0
0
LINE
5
56
330
44
100
AcDbEntity
8
CAXA0
62
256
6
ByLayer
370
-1
48
1.0
60
0
100
AcDbLine
10
284.77725114778
20
630.512444847881
30
0.0
11
284.77725114778
21
382.633183073365
31
0.0
39
0.0
210
0.0
220
0.0
230
1.0
0
LINE
5
57
330
44
100
AcDbEntity
8
CAXA0
62
256
6
ByLayer
370
-1
48
1.0
60
0
100
AcDbLine
10
284.77725114778
20
382.633183073365
30
0.0
11
262.90555157944
21
360.761483505025
31
0.0
39
0.0
210
0.0
220
0.0
230
1.0
0
LINE
5
58
330
44
100
AcDbEntity
8
CAXA0
62
256
6
ByLayer
370
-1
48
1.0
60
0
100
AcDbLine
10
262.90555157944
20
652.384144416221
30
0.0
11
262.90555157944
21
360.761483505025
31
0.0
39
0.0
210
0.0
220
0.0
230
1.0
0
LINE
5
59
330
44
100
AcDbEntity
8
CAXA0
62
256
6
ByLayer
370
-1
48
1.0
60
0
100
AcDbLine
10
-750.483195086968
20
543.025646574523
30
0.0
11
-750.483195086968
21
470.119981346723
31
0.0
39
0.0
210
0.0
220
0.0
230
1.0
0
LINE
5
5A
330
44
100
AcDbEntity
8
CAXA0
62
256
6
ByLayer
370
-1
48
1.0
60
0
100
AcDbLine
10
-819.743577053377
20
543.025646574523
30
0.0
11
-750.483195086968
21
543.025646574523
31
0.0
39
0.0
210
0.0
220
0.0
230
1.0
0
LINE
5
5B
330
44
100
AcDbEntity
8
CAXA0
62
256
6
ByLayer
370
-1
48
1.0
60
0
100
AcDbLine
10
-819.743577053377
20
470.119981346723
30
0.0
11
-750.483195086968
21
470.119981346723
31
0.0
39
0.0
210
0.0
220
0.0
230
1.0
0
LINE
5
5C
330
44
100
AcDbEntity
8
CAXA0
62
256
6
ByLayer
370
-1
48
1.0
60
0
100
AcDbLine
10
-819.743577053377
20
711.771828003626
30
0.0
11
-819.743577053377
21
543.025646574523
31
0.0
39
0.0
210
0.0
220
0.0
230
1.0
0
LINE
5
5D
330
44
100
AcDbEntity
8
CAXA0
62
256
6
ByLayer
370
-1
48
1.0
60
0
100
AcDbLine
10
-819.743577053377
20
470.119981346723
30
0.0
11
-819.743577053377
21
301.37379991762
31
0.0
39
0.0
210
0.0
220
0.0
230
1.0
0
ARC
5
5E
330
44
100
AcDbEntity
8
CAXA0
62
256
6
ByLayer
370
-1
48
1.0
60
0
100
AcDbCircle
39
0.0
10
-382.309585686582
20
506.572813960623
30
0.0
40
437.433991366794
210
0.0
220
0.0
230
1.0
100
AcDbArc
50
161.776085575034
51
175.236358309273
0
ARC
5
5F
330
44
100
AcDbEntity
8
CAXA0
62
256
6
ByLayer
370
-1
48
1.0
60
0
100
AcDbCircle
39
0.0
10
-382.309585686582
20
506.572813960623
30
0.0
40
438.950231585156
210
0.0
220
0.0
230
1.0
100
AcDbArc
50
184.763641690727
51
198.223914424966
0
ENDBLK
5
61
330
44
100
AcDbEntity
8
0
100
AcDbBlockEnd
0
ENDSEC
0
SECTION
2
ENTITIES
0
VIEWPORT
5
65
330
1B
100
AcDbEntity
67
1
8
0
62
256
6
ByLayer
370
-1
48
1.0
60
0
100
AcDbViewport
10
0.0
20
0.0
30
0.0
40
297.0
41
210.0
68
1
69
1
12
50.0
22
100.0
13
0.0
23
0.0
14
10.0
24
10.0
15
10.0
25
10.0
16
0.0
26
0.0
36
1.0
17
0.0
27
0.0
37
0.0
42
50.0
43
0.0
44
0.0
45
250.0
50
0.0
51
0.0
72
1000
90
819232
110
0.0
120
0.0
130
0.0
111
1.0
121
0.0
131
0.0
112
0.0
122
1.0
132
0.0
0
INSERT
5
62
330
1F
100
AcDbEntity
67
0
8
CAXA0
62
256
6
ByLayer
370
-1
48
1.0
60
0
100
AcDbBlockReference
2
CAXBLOCK0
10
-626.543564199709
20
506.572813960623
30
0.0
41
1.0
42
1.0
43
1.0
50
0.0
210
0.0
220
0.0
230
1.0
0
ENDSEC
0
SECTION
2
OBJECTS
0
DICTIONARY
5
72
330
0
100
AcDbDictionary
280
0
281
1
3
ACAD_GROUP
350
73
3
ACAD_LAYOUT
350
74
3
ACAD_MLINESTYLE
350
75
0
DICTIONARY
5
73
330
72
100
AcDbDictionary
280
0
281
1
0
DICTIONARY
5
74
330
72
100
AcDbDictionary
280
0
281
1
3
Layout1
350
1E
3
Layout2
350
26
3
Model
350
22
0
DICTIONARY
5
75
330
72
100
AcDbDictionary
280
0
281
1
3
Standard
350
18
0
LAYOUT
5
1E
330
74
100
AcDbPlotSettings
1

2

4

6

40
0.0
41
0.0
42
0.0
43
0.0
44
0.0
45
0.0
46
0.0
47
0.0
48
0.0
49
0.0
140
0.0
141
0.0
142
1.0
143
1.0
70
688
72
0
73
0
74
5
7

75
16
147
1.0
148
0.0
149
0.0
100
AcDbLayout
1
Layout1
70
1
71
1
10
0.0
20
-7.5
11
420.0
21
297.0
12
0.0
22
0.0
32
0.0
14
100000000000000000000.0
24
100000000000000000000.0
34
100000000000000000000.0
15
-100000000000000000000.0
25
-100000000000000000000.0
35
-100000000000000000000.0
146
0.0
13
0.0
23
0.0
33
0.0
16
1.0
26
0.0
36
0.0
17
0.0
27
1.0
37
0.0
76
0
330
1B
0
LAYOUT
5
26
330
74
100
AcDbPlotSettings
1

2

4

6

40
0.0
41
0.0
42
0.0
43
0.0
44
0.0
45
0.0
46
0.0
47
0.0
48
0.0
49
0.0
140
0.0
141
0.0
142
1.0
143
1.0
70
688
72
0
73
0
74
5
7

75
16
147
1.0
148
0.0
149
0.0
100
AcDbLayout
1
Layout2
70
1
71
2
10
0.0
20
-7.5
11
0.0
21
0.0
12
0.0
22
0.0
32
0.0
14
0.0
24
0.0
34
0.0
15
0.0
25
0.0
35
0.0
146
0.0
13
0.0
23
0.0
33
0.0
16
1.0
26
0.0
36
0.0
17
0.0
27
1.0
37
0.0
76
0
330
23
0
LAYOUT
5
22
330
74
100
AcDbPlotSettings
1

2

4

6

40
0.0
41
0.0
42
0.0
43
0.0
44
0.0
45
0.0
46
0.0
47
0.0
48
0.0
49
0.0
140
0.0
141
0.0
142
1.0
143
1.0
70
1712
72
0
73
0
74
5
7

75
16
147
1.0
148
0.0
149
0.0
100
AcDbLayout
1
Model
70
1
71
0
10
-148.5
20
-7.5
11
105.0
21
148.5
12
0.0
22
0.0
32
0.0
14
-1045.92733090898
24
-678.169379028663
34
0.0
15
1345.15982706865
25
827.047908318191
35
0.0
146
0.0
13
0.0
23
0.0
33
0.0
16
1.0
26
0.0
36
0.0
17
0.0
27
1.0
37
0.0
76
0
330
1F
0
MLINESTYLE
5
18
330
75
100
AcDbMlineStyle
2
Standard
70
0
3

62
256
51
90.0
52
90.0
71
2
49
-0.5
62
256
6
ByLayer
49
0.5
62
256
6
ByLayer
0
ENDSEC
0
EOF
